<?xml version="1.0" encoding="UTF-8"?>
<svg id="Layer_2" xmlns="http://www.w3.org/2000/svg" version="1.1" viewBox="0 0 258.3 70.4">
  <!-- Generator: Adobe Illustrator 29.2.1, SVG Export Plug-In . SVG Version: 2.1.0 Build 116)  -->
  <g>
    <path d="M225.3,58.4c-.4.7-1,1.2-1.8,1.5s-1.7.5-2.7.5h-2.7c-.1,0-.2,0-.2.2v4.5c0,.2,0,.3-.1.4s-.2,0-.4,0h-3.1v-13.6c0-.3.1-.4.3-.4h6c1.1,0,2,.2,2.9.5s1.5.8,2,1.5.7,1.5.7,2.5-.2,1.7-.6,2.4h-.3,0ZM221.5,54.7c-.4-.3-.8-.5-1.4-.5h-2.2v3.3h2.3c.6,0,1-.2,1.3-.5s.5-.7.5-1.3-.2-1-.5-1.3v.3h0Z"/>
    <path d="M239.8,65.3v.3h-3.6c-.2,0-.4,0-.5-.4l-1.9-5.1s0-.2-.2-.2h-1.9v5.2c0,.2,0,.3-.1.4s-.2,0-.4,0h-3.1v-13.6c0-.3.1-.4.3-.4h6.2c1.8,0,3.2.3,4.1,1,1,.7,1.5,1.7,1.5,2.9s-.2,1.7-.7,2.4-1.1,1.1-1.8,1.4v.4l2.5,5.5v.2h-.4ZM235.4,56.9c.3-.3.5-.7.5-1.2s-.2-.9-.5-1.2-.8-.4-1.3-.4h-2.3v3.2h2.3c.6,0,1.1,0,1.4-.4h0Z"/>
  </g>
  <path d="M250,66.6c-.5,0-1.1-.2-1.6-.5l-3.8-2.4c-.9-.5-1.4-1.5-1.4-2.5v-4.7c0-1,.6-2,1.4-2.5l3.8-2.3c.9-.6,2.1-.5,3,0l3.8,2.3c.9.5,1.4,1.5,1.4,2.5v4.8c0,1-.5,2-1.4,2.5l-3.8,2.3c-.5.3-1,.4-1.5.4h0ZM247.3,60.6l2.8,1.8,2.7-1.6v-3.5l-2.7-1.7-2.7,1.6v3.5h-.1ZM253.3,60.4h0ZM249.4,55.2h0Z"/>
  <g>
    <path d="M28.8,59.8c-.9,0-1.8.4-2.4,1l-20.5-12.7c-1.1-.7-1.7-1.8-1.7-3.1v-22.7c0-.6-.5-1.1-1.1-1.1s-1.1.5-1.1,1.1v22.7c0,2,1,3.9,2.7,4.9l20.7,12.8v.3c0,1.8,1.5,3.3,3.3,3.3s3.3-1.5,3.3-3.3-1.5-3.3-3.3-3.3h0ZM28.8,64.2c-.6,0-1.1-.5-1.1-1.1s.5-1.1,1.1-1.1,1.1.5,1.1,1.1-.5,1.1-1.1,1.1Z"/>
    <path d="M50.2,12.3L31.8.9c-1.9-1.2-4.2-1.2-6.1,0L5.4,13.4c-.6-.4-1.3-.7-2-.7-1.9,0-3.4,1.5-3.4,3.4s1.5,3.4,3.4,3.4,3.4-1.5,3.4-3.4,0-.6,0-.9L26.8,2.7c1.2-.7,2.6-.7,3.8,0l18.4,11.4c.5.3,1.2.2,1.5-.4.3-.5.2-1.2-.4-1.5h.1ZM3.4,17.2c-.6,0-1.1-.5-1.1-1.1s.5-1.1,1.1-1.1,1.1.5,1.1,1.1-.5,1.1-1.1,1.1Z"/>
    <path d="M57.6,16.6c0-1.9-1.5-3.4-3.4-3.4s-3.4,1.5-3.4,3.4,1,2.8,2.4,3.2v25.2c0,1.3-.6,2.4-1.7,3.1l-17.9,11.1c-.5.3-.7,1-.4,1.5.2.3.6.5.9.5s.4,0,.6-.2l17.9-11.1c1.7-1.1,2.7-2.9,2.7-4.9v-25.2c1.3-.5,2.2-1.7,2.2-3.2h0ZM54.1,15.6c.6,0,1,.5,1,1s-.5,1-1,1-1-.5-1-1,.5-1,1-1Z"/>
    <path d="M28.2,25.1c-.7-.5-.9-1.5-.4-2.3s1.5-.9,2.3-.4l18.3,12.4.6.4v-13.2c0-1.5-.8-2.8-2-3.6l-15.8-9.8c-1.4-.8-3.1-.8-4.4,0l-15.8,9.8c-1.2.8-2,2.1-2,3.6v2.7l20.6,13.9c.7.5.9,1.5.4,2.3-.5.7-1.5.9-2.3.4l-18.8-12.7v13.4c0,1.5.8,2.8,2,3.6l15.8,9.8c1.4.8,3.1.8,4.4,0l15.8-9.8c1.2-.8,2-2.1,2-3.6v-2.9s-20.7-14-20.7-14Z"/>
  </g>
  <g>
    <path d="M244.9,37.3h-16.5v3.2c.1,1.2.9,2.1,2,2.6.8.3,1.6.5,2.4.5,2,.2,4,.2,6,0,1.6-.2,3.2-.4,4.8-.8h.5v4.9c-.3,0-.7,0-1,.2-2.2.4-4.4.6-6.7.8h-4.6c-2,0-4-.4-6-1.1-1.4-.5-2.6-1.2-3.6-2.3-1-1.2-1.5-2.6-1.6-4.1v-9.7c0-1.1.1-2.3.5-3.4.6-1.8,1.6-3.1,3.2-4,1.1-.6,2.3-1,3.5-1.3,2.5-.5,5-.6,7.6-.4,1.4.1,2.7.3,4,.7.9.3,1.8.7,2.6,1.3,1,.7,1.7,1.7,2.1,2.9.4,1.1.6,2.2.6,3.3v7.1s.2-.4.2-.4ZM237.4,32.8v-3.8c0-.8-.5-1.5-1.2-1.8-.3-.1-.6-.2-.9-.3-1.7-.3-3.3-.3-5,0-.2,0-.5.1-.7.2-.8.4-1.3,1-1.3,1.9v3.7h9.1,0Z"/>
    <path d="M124.4,37.3h-16.5v3c0,1.3.8,2.2,2,2.7.8.3,1.6.5,2.4.6,2,.2,4,.2,6,0,1.6-.2,3.2-.4,4.8-.8h.5v4.8h-.3c-2.5.5-4.9.8-7.4.9h-4.6c-2,0-4.1-.4-6-1.1-1.2-.4-2.3-1-3.2-1.9-1.3-1.2-1.9-2.8-2-4.5v-9.8c0-1.2,0-2.3.5-3.4.6-1.7,1.6-3.1,3.2-4,1.3-.7,2.6-1.1,4-1.4,2.3-.4,4.7-.5,7.1-.3,1.4.1,2.7.3,4,.7.9.3,1.8.7,2.6,1.3,1,.7,1.7,1.7,2.2,2.9.4,1.1.6,2.2.7,3.3v7.1h0ZM117,32.8v-3.8c0-.9-.5-1.5-1.2-1.8-.3-.1-.6-.2-.9-.3-1.1-.3-2.1-.2-3.2-.2s-1.3.1-2,.3c-1.1.3-1.8,1.1-1.8,2.3v3.4h9.1Z"/>
    <path d="M95.6,22.4v4.9h-.4c-2.4-.2-4.8-.4-7.2-.5-1.5,0-3-.1-4.5,0-.3,0-.6,0-.8.2-.6.1-1,.6-1.1,1.1v2c0,.4.2.8.5,1,.4.4,1,.6,1.5.6h5.3c1.6,0,3.2.3,4.7,1,1.1.5,2.1,1.2,2.7,2.3.4.8.7,1.6.7,2.5v4.6c0,1.5-.7,2.8-1.8,3.8-.7.7-1.5,1.1-2.4,1.4-1.1.4-2.2.6-3.4.7-2.4.3-4.7.3-7.1.2-2.2,0-4.4-.3-6.6-.6h-1v-5.1h.7c2.1.3,4.2.5,6.3.8,1.5.2,3.1.2,4.6,0,.6,0,1.3,0,1.9-.3.3,0,.6-.3.8-.5.3-.2.5-.6.5-1v-2.4c0-.9-.6-1.4-1.4-1.7-.7-.2-1.4-.2-2.1-.2h-3.7c-1,0-2.1,0-3.1-.4-1.1-.2-2.1-.7-2.9-1.3-1.2-.9-1.8-2.1-2-3.5v-4.6c0-.6,0-1.1.3-1.7.5-1.2,1.4-2,2.5-2.6,1-.5,2-.8,3.1-1,2.8-.5,5.7-.6,8.5-.5,1.3,0,2.6.1,3.9.2,1,0,2,.1,3.1.2h.3l-.3.4h0Z"/>
    <rect x="179.6" y="15" width="7.7" height="4.5"/>
    <rect x="179.6" y="22.5" width="7.7" height="25.4"/>
    <rect x="249.2" y="15.3" width="7.8" height="32.7"/>
    <path d="M136.4,48v-17.7c0-.5,0-1.1.2-1.6.1-.7.6-1.2,1.3-1.5.2,0,.5-.2.7-.2,1.5-.3,2.9-.2,4.4-.1.4,0,.8.1,1.1.2.7.2,1.2.7,1.3,1.4,0,.4.2.9.2,1.3v18.2h7.7v-18.4c0-1.1,0-2.1-.4-3.1-.5-1.8-1.6-3.1-3.4-3.8-1.1-.4-2.3-.6-3.5-.7-1.4-.1-2.8,0-4.3,0-1,.1-2,.3-3,.7-.9.4-1.7.9-2.2,1.8-.1.2-.2.3-.3.5v-2.7h-7.8v25.5h7.8l.2.2Z"/>
    <path d="M199.4,48v-17.7c0-.5,0-1.1.2-1.6.1-.7.6-1.2,1.3-1.5.2,0,.5-.2.7-.2,1.5-.3,2.9-.2,4.4-.1.4,0,.8.1,1.1.2.7.2,1.2.7,1.3,1.4,0,.4.2.9.2,1.3v18.2h7.7v-18.4c0-1.1,0-2.1-.4-3.1-.5-1.8-1.6-3.1-3.4-3.8-1.1-.4-2.3-.6-3.5-.7-1.4-.1-2.8,0-4.3,0-1,.1-2,.3-3,.7-.9.4-1.7.9-2.2,1.8-.1.2-.2.3-.3.5v-2.7h-7.8v25.5h7.8l.2.2Z"/>
    <path d="M175.3,27.3v-4.9h-7v-7.2h-7.7v7.2h-5.1v4.9h5.1v13.6c0,1.3.3,2.6.9,3.8.6,1.3,1.6,2.2,3,2.8s2.9.9,4.4,1h5.4c1.8,0,.7,0,1.1,0v-4.8h-.6c-1.3.2-2.6.2-3.9,0-1.3-.2-2-.8-2.3-2.1,0-.5-.2-1.1-.2-1.6v-12.5h7v-.2h0Z"/>
  </g>
</svg>